<?xml version="1.0" encoding="utf-8"?>
<!-- Generator: Adobe Illustrator 25.4.1, SVG Export Plug-In . SVG Version: 6.00 Build 0)  -->
<svg version="1.1" id="Ebene_1" xmlns="http://www.w3.org/2000/svg" xmlns:xlink="http://www.w3.org/1999/xlink" x="0px" y="0px"
	 viewBox="0 0 1390 330.6" style="enable-background:new 0 0 1390 330.6;" xml:space="preserve">
<style type="text/css">
	.st0{fill-rule:evenodd;clip-rule:evenodd;fill:#FFFFFF;}
</style>
<path class="st0" d="M123.2,276.7c-24.4,0-46.3-5.8-65.1-17.3c-0.1-0.1-0.2-0.1-0.3-0.2c-18.5-11.9-33-28.6-43.1-49.8
	C4.9,188.9,0,165.1,0,138.8c0-26.5,4.6-50.2,13.6-70.6c0-0.1,0.1-0.1,0.1-0.2c9.7-21.1,23.5-37.7,41.1-49.3
	C72.6,6.6,93.2,0.4,116,0.4c26.9,0,50.4,8.5,69.7,25.3c19.3,16.5,32,38.5,37.9,65.5c2.1,9.5-3.8,19-13.3,21.3l-32.5,8
	c-1.4,0.4-2.9,0.5-4.3,0.5c-3.3,0-6.6-0.9-9.4-2.7c-4.1-2.5-7-6.6-8.1-11.3c-3.1-13.2-8.4-23.2-16.2-30.6
	c-7.1-6.7-14.6-9.8-23.7-9.8c-13.2,0-23.3,5.4-31.8,17.1c-9.5,13.1-14.4,31.6-14.4,54.9c0,22.7,5.3,40.8,15.7,53.8
	c9.7,12.1,21.7,17.8,37.6,17.8c12.8,0,23.4-4.2,32.5-12.8c9.6-9.4,15.5-21.8,17.9-37.8c0.7-5,3.5-9.4,7.7-12.2c3-2,6.5-3.1,10.1-3.1
	c1.4,0,2.7,0.2,4.1,0.5l32.5,7.6c9.2,2.1,15.2,11,13.7,20.3c-4.8,30.9-18.2,56.2-39.7,75.3c0,0-0.1,0.1-0.1,0.1
	C180.1,267.1,153.7,276.7,123.2,276.7z"/>
<path class="st0" d="M168.2,210.5c-12.5,11.9-27.5,17.8-45,17.8c-21.4,0-38.6-8.2-51.7-24.5c-13.1-16.3-19.6-38-19.6-65.1
	c0-27.3,5.9-49.2,17.8-65.5C81.6,56.9,97,48.7,116,48.7c13.7,0,25.7,4.9,36.1,14.7c10.4,9.8,17.5,23,21.4,39.7l32.5-8
	C201,71.9,190.3,53.4,174,39.4c-16-14-35.4-20.9-57.9-20.9c-19.3,0-36.4,5.1-51.2,15.2C49.9,43.4,38.4,57.4,30,75.5
	c-8,18.1-12,39.2-12,63.3c0,23.8,4.3,44.7,12.9,62.8c8.6,18.1,20.8,32.2,36.5,42.3c16,9.8,34.6,14.7,55.7,14.7
	c26.1,0,48.4-8,66.8-24.1c18.4-16.3,29.7-37.9,33.9-64.6l-32.5-7.6C188.4,182.3,180.7,198.3,168.2,210.5z"/>
<path class="st0" d="M255.4,269.1c-9.9,0-18-8.1-18-18V26c0-9.9,8.1-18,18-18h28.1c6.2,0,11.7,3.1,14.9,7.9c0.3-0.2,0.6-0.5,0.9-0.7
	C312.5,5.1,327.8,0,344.5,0c23,0,42.4,8.7,56.1,25.1c13.2,15.5,20.7,36.9,22.1,63.7c0.4,8.1-4.6,15.5-12.3,18l-29.4,9.8
	c-1.9,0.6-3.8,0.9-5.7,0.9c-3.6,0-7.1-1.1-10.1-3.1c-4.6-3.2-7.5-8.3-7.8-13.9c-0.7-12.7-3.3-22.4-7.5-28c-3.1-4.1-6.6-5.8-12-5.8
	c-5.6,0-13,1.5-20.2,13.5c-6.9,11.7-10.4,28.8-10.4,50.9v119.9c0,9.9-8.1,18-18,18H255.4z"/>
<path class="st0" d="M344.5,18c-12.8,0-24.2,3.9-34.3,11.6s-17.7,18.3-22.7,31.6H287L283.5,26h-28.1v225.1h33.9V131.2
	c0-25.6,4.3-45.6,12.9-60.2c8.9-14.9,20.8-22.3,35.7-22.3c11,0,19.8,4.3,26.3,12.9c6.5,8.6,10.2,21.2,11.1,37.9l29.4-9.8
	c-1.2-22.9-7.1-40.6-17.8-53C376.5,24.2,362.4,18,344.5,18z"/>
<path class="st0" d="M534.6,276.7c-25.5,0-48.4-6-68-17.7c-19.9-11.8-35.4-28.7-46.1-50.2c0,0,0-0.1-0.1-0.1
	c-10.4-21.1-15.7-45.5-15.7-72.6c0-26,4.8-49.4,14.2-69.6c0-0.1,0.1-0.1,0.1-0.2c10.1-20.8,24.5-37.1,42.8-48.4
	c18.3-11.6,39.5-17.4,63-17.4c23.1,0,43.7,5.9,61.1,17.7c17.7,11.4,31.4,27.7,40.8,48.6c9.4,20.1,14.1,43.6,14.1,69.9
	c0,10.2-0.3,13.7-0.6,15.9c-1.3,8.9-8.9,15.5-17.8,15.5h-11.2l25.7,11.5c8.4,3.7,12.6,13.2,9.8,22c-7.5,23.2-21.8,41.8-42.4,55.4
	C584.4,269.9,561,276.7,534.6,276.7z M493.5,194.4c10.5,10.5,23.8,15.5,40.6,15.5c12.1,0,22.2-2.9,30.8-8.8c0.1,0,0.1-0.1,0.2-0.1
	c8.7-5.9,14.8-13.8,18.5-24.2c1.3-3.6,3.8-6.7,6.9-8.9H478.8C481.8,178.4,486.7,187.2,493.5,194.4z M565.7,102.1
	c-2.4-8.9-6.1-16.1-11.1-21.6c-0.1-0.1-0.2-0.2-0.3-0.3c-7.3-8.5-16.7-12.4-29.6-12.4c-14,0-24.8,4.3-33.2,13
	c-5.2,5.6-9.2,12.8-12,21.4H565.7z"/>
<path class="st0" d="M575.2,215.9c-11.6,8-25.3,12-41,12c-21.7,0-39.5-7-53.5-20.9c-13.7-14.3-21.4-33.3-23.2-57h164.9
	c0.3-2.1,0.4-6.5,0.4-13.4c0-23.8-4.2-44.6-12.5-62.4c-8-17.8-19.5-31.5-34.3-41c-14.6-9.8-31.6-14.7-51.2-14.7
	c-20.2,0-38,4.9-53.5,14.7c-15.4,9.5-27.5,23.2-36.1,41c-8.3,17.8-12.5,38.5-12.5,61.9c0,24.4,4.6,45.9,13.8,64.6
	c9.2,18.4,22.3,32.7,39.2,42.8c16.9,10.1,36.5,15.2,58.8,15.2c22.9,0,42.8-5.6,59.7-16.9c17.2-11.3,29-26.6,35.2-45.9l-29-12.9
	C595.5,196.9,587,207.8,575.2,215.9z M478.4,68.4c11.9-12.5,27.3-18.7,46.3-18.7c18.1,0,32.5,6.2,43.2,18.7
	c11,12.2,17.2,29.4,18.7,51.7H457.5C459.9,98.1,466.9,80.8,478.4,68.4z"/>
<path class="st0" d="M857.1,269.1c-8.1,0-15.3-5.5-17.4-13.3L805.2,128L772,255.6c-2.1,7.9-9.2,13.5-17.4,13.5h-45.5
	c-8,0-15.1-5.3-17.3-13L626.8,31c-1.6-5.4-0.5-11.3,2.9-15.8S638.4,8,644.1,8h35.2c8.1,0,15.2,5.4,17.4,13.3l34.5,126.6l34.2-126.6
	c2.1-7.9,9.2-13.3,17.4-13.3h44.6c8.1,0,15.2,5.4,17.4,13.2l34.8,126.6l33.9-126.5c2.1-7.9,9.2-13.3,17.4-13.3h35.2
	c5.6,0,11,2.6,14.4,7.2s4.5,10.3,2.9,15.8L918.9,256c-2.2,7.7-9.3,13.1-17.3,13.1H857.1z"/>
<polygon class="st0" points="879.8,215.9 879.4,215.9 827.2,26 782.6,26 731.4,215.9 731,215.9 679.3,26 644.1,26 709.1,251.1 
	754.6,251.1 804.5,59.4 805.4,59.4 857.1,251.1 901.6,251.1 965.8,26 930.6,26 "/>
<path class="st0" d="M1153.8,330.6c-9.9,0-18-8.1-18-18V26c0-9.9,8.1-18,18-18h29.4c7.9,0,14.8,5.2,17.1,12.5
	c2.9-2.1,5.8-4.1,8.9-5.9c15.1-9,36.1-14.1,57.4-14.1c34.7,0,52.9,10.3,68.4,20.9c18.5,12.6,26.6,22.8,39.9,45.4
	c0.3,0.5,0.6,1.1,0.9,1.7c9.4,20.4,14.1,44.1,14.1,70.3c0,25.3-4.2,45.4-14.1,66.9c-10.5,22.9-22.6,38-39.3,49.1l-1.9,1.2
	c-15.3,10.1-31.1,20.6-64.2,20.6c-17,0-43-3.6-60.2-13.6c-0.1-0.1-0.2-0.1-0.3-0.2c-1.5-0.9-2.9-1.8-4.3-2.8v52.4
	c0,9.9-8.1,18-18,18H1153.8z M1260.9,68.5c-16.6,0-31.4,6.5-40.4,17.8c0,0-0.1,0.1-0.1,0.1c-10.5,12.8-15.6,30-15.6,52.4
	c0,14.3,2.5,27.2,7.4,38.1c5,11.3,13.9,19.2,20.5,23.7c7.4,5.1,17.4,7.9,28.2,7.9c18.1,0,25.8-2.9,33-7.9
	c11.2-7.8,15.2-15.3,18.9-23.7c4.9-11,7.4-23.8,7.4-38.1c0-14.9-2.5-28-7.4-39c-4.1-9.3-9.7-15.8-18.6-21.7
	c-0.1-0.1-0.2-0.1-0.3-0.2C1285.9,72.2,1277.2,68.5,1260.9,68.5z"/>
<path class="st0" d="M1359.5,75.9c-12.1-20.4-18.5-28.8-34.6-39.7c-14.9-10.1-29.4-17.8-58.3-17.8c-16.9,0-35.1,3.9-48.2,11.6
	c-13.1,7.7-23.5,18.7-31.2,33h-0.4l-3.6-37h-29.4v286.6h33.9v-97.2h0.4c8,13.7,18.4,24.4,31.2,32.1c12.8,7.4,34.5,11.1,51.1,11.1
	c28.9,0,41.2-9,56.1-18.8c15.2-10.1,24.6-23.6,33-41.7c8.3-18.1,12.5-35.6,12.5-59.4C1372,115,1367.8,94.1,1359.5,75.9z
	 M1329.2,184.2c-4.8,10.7-10.7,21.2-25.1,31.2c-11.2,7.8-22.9,11.1-43.3,11.1c-14,0-27.8-3.7-38.5-11.1
	c-10.7-7.4-20.7-17.8-26.7-31.2c-5.9-13.4-8.9-28.5-8.9-45.5c0-26.4,6.5-47.7,19.6-63.7c13.1-16.3,33.4-24.5,54.5-24.5
	c20.4,0,32.6,5.1,43.3,12.5c10.7,7.1,19.2,16,25.1,29.4c5.9,13.4,8.9,28.8,8.9,46.3C1338.1,155.7,1335.2,170.9,1329.2,184.2z"/>
<path class="st0" d="M1049.2,52.1c-32,0-57.9,25.9-57.9,57.9c0,32,25.9,57.9,57.9,57.9c32,0,57.9-25.9,57.9-57.9
	C1107.2,78,1081.2,52.1,1049.2,52.1z"/>
</svg>
