<svg width="1354" height="295" viewBox="0 0 1354 295" fill="none" xmlns="http://www.w3.org/2000/svg">
<path d="M105.174 240.651C84.0794 240.651 65.5106 235.749 49.4672 225.945C33.7209 215.843 21.5397 201.731 12.9238 183.608C4.30788 165.485 0 144.539 0 120.771C0 96.7062 4.01083 75.612 12.0325 57.4889C20.3513 39.3658 31.9383 25.4021 46.7933 15.5978C61.6483 5.49634 78.7316 0.445638 98.0431 0.445638C120.623 0.445638 139.934 7.4275 155.978 21.3912C172.318 35.3549 183.014 53.9237 188.065 77.0975L155.532 85.1193C151.67 68.4816 144.539 55.2607 134.141 45.4563C123.742 35.652 111.71 30.7499 98.0431 30.7499C79.0287 30.7499 63.5795 38.9201 51.6955 55.2607C39.8114 71.6012 33.8694 93.4381 33.8694 120.771C33.8694 147.807 40.4056 169.496 53.4781 185.836C66.5505 202.177 83.7823 210.347 105.174 210.347C122.702 210.347 137.706 204.405 150.184 192.521C162.662 180.34 170.387 164.297 173.358 144.391L205.891 151.967C201.731 178.706 190.441 200.246 172.021 216.586C153.601 232.63 131.318 240.651 105.174 240.651Z" fill="white"/>
<path d="M326.526 0C344.352 0 358.464 6.2391 368.863 18.7173C379.559 31.1955 385.501 48.873 386.689 71.7497L357.276 81.5541C356.385 64.9164 352.671 52.2897 346.135 43.6738C339.599 35.0578 330.834 30.7499 319.841 30.7499C304.986 30.7499 293.102 38.1774 284.189 53.0324C275.573 67.5903 271.265 87.6446 271.265 113.195V233.075H237.396V8.02171H265.472L269.037 43.2281H269.483C274.534 29.8586 282.11 19.3115 292.211 11.5869C302.312 3.8623 313.751 0 326.526 0Z" fill="white"/>
<path d="M516.6 240.651C494.317 240.651 474.708 235.601 457.774 225.499C440.839 215.398 427.767 201.137 418.556 182.717C409.346 163.999 404.741 142.46 404.741 118.097C404.741 94.6265 408.901 73.978 417.22 56.152C425.835 38.326 437.868 24.6593 453.317 15.1521C468.766 5.34779 486.592 0.445638 506.795 0.445638C526.404 0.445638 543.487 5.34779 558.045 15.1521C572.9 24.6593 584.339 38.326 592.36 56.152C600.679 73.978 604.838 94.775 604.838 118.543C604.838 125.376 604.69 129.833 604.393 131.913H439.502C441.285 155.681 449.009 174.695 462.676 188.956C476.64 202.92 494.466 209.901 516.154 209.901C531.9 209.901 545.567 205.891 557.154 197.869C569.038 189.847 577.505 178.854 582.556 164.891L611.523 177.815C605.284 197.126 593.549 212.427 576.317 223.717C559.382 235.006 539.476 240.651 516.6 240.651ZM568.741 102.054C567.255 79.7715 561.016 62.5396 550.023 50.3585C539.328 37.8803 524.918 31.6412 506.795 31.6412C487.781 31.6412 472.332 37.8803 460.448 50.3585C448.861 62.8367 441.879 80.0686 439.502 102.054H568.741Z" fill="white"/>
<path d="M736.573 233.075H691.117L626.052 8.02171H661.258L712.954 197.869H713.4L764.649 8.02171H809.214L861.356 197.869H861.801L912.606 8.02171H947.812L883.638 233.075H839.073L787.378 41.4455H786.486L736.573 233.075Z" fill="white"/>
<path d="M1135.82 294.601V8.02171H1165.23L1168.8 45.0107H1169.24C1176.97 30.7499 1187.36 19.7572 1200.44 12.0325C1213.51 4.30794 1231.72 0.445638 1248.65 0.445638C1277.58 0.445638 1292.11 8.16392 1306.97 18.2653C1323 29.1661 1329.41 37.5021 1341.52 57.9346C1349.84 76.0577 1354 97.0033 1354 120.771C1354 144.539 1349.84 162.051 1341.52 180.174C1333.2 198.298 1323.72 211.753 1308.57 221.854C1293.72 231.658 1281.4 240.651 1252.47 240.651C1235.83 240.651 1214.1 236.938 1201.33 229.51C1188.55 221.785 1178.15 211.09 1170.13 197.423H1169.69V294.601H1135.82ZM1242.86 208.564C1263.24 208.564 1274.91 205.216 1286.13 197.423C1300.56 187.404 1306.44 176.968 1311.22 166.228C1317.16 152.858 1320.13 137.706 1320.13 120.771C1320.13 103.242 1317.16 87.7932 1311.22 74.4237C1305.28 61.0541 1296.83 52.1411 1286.13 45.0107C1275.43 37.5832 1263.24 32.5325 1242.86 32.5325C1221.77 32.5325 1201.48 40.7028 1188.4 57.0433C1175.33 73.0867 1168.8 94.3294 1168.8 120.771C1168.8 137.706 1171.77 152.858 1177.71 166.228C1183.65 179.597 1193.68 189.996 1204.37 197.423C1215.07 204.851 1228.9 208.564 1242.86 208.564Z" fill="white"/>
<path d="M1079.34 92.0059C1079.34 118.566 1057.8 140.098 1031.24 140.098C1004.68 140.098 983.152 118.566 983.152 92.0059C983.152 65.4455 1004.68 43.9141 1031.24 43.9141C1057.8 43.9141 1079.34 65.4455 1079.34 92.0059Z" fill="white"/>
<path fill-rule="evenodd" clip-rule="evenodd" d="M1031.24 136.892C1056.03 136.892 1076.13 116.796 1076.13 92.0059C1076.13 67.2162 1056.03 47.1202 1031.24 47.1202C1006.45 47.1202 986.358 67.2162 986.358 92.0059C986.358 116.796 1006.45 136.892 1031.24 136.892ZM1031.24 140.098C1057.8 140.098 1079.34 118.566 1079.34 92.0059C1079.34 65.4455 1057.8 43.9141 1031.24 43.9141C1004.68 43.9141 983.152 65.4455 983.152 92.0059C983.152 118.566 1004.68 140.098 1031.24 140.098Z" fill="white"/>
</svg>
